<svg width="464" height="129" viewBox="0 0 464 129" fill="none" xmlns="http://www.w3.org/2000/svg">
<path fill-rule="evenodd" clip-rule="evenodd" d="M64.1768 0.134613C66.3859 0.134613 68.1768 1.92547 68.1768 4.13461V27.3483C66.8628 27.2071 65.5282 27.1346 64.1768 27.1346C62.8253 27.1346 61.4907 27.2071 60.1768 27.3483V4.13461C60.1768 1.92547 61.9676 0.134613 64.1768 0.134613ZM68.1768 32.3822C66.8664 32.2188 65.5314 32.1346 64.1768 32.1346C46.5036 32.1346 32.1768 46.4615 32.1768 64.1346C32.1768 81.8077 46.5036 96.1346 64.1768 96.1346C65.5314 96.1346 66.8664 96.0504 68.1768 95.887V32.3822ZM68.1768 100.921C66.8628 101.062 65.5282 101.135 64.1768 101.135C62.8253 101.135 61.4907 101.062 60.1768 100.921V124.135C60.1768 126.344 61.9676 128.135 64.1768 128.135C66.3859 128.135 68.1768 126.344 68.1768 124.135V100.921ZM40.9946 35.2957L24.5788 18.8798C23.0167 17.3177 20.484 17.3177 18.9219 18.8798C17.3598 20.4419 17.3598 22.9746 18.9219 24.5367L35.3378 40.9525C37.0142 38.8696 38.9117 36.9721 40.9946 35.2957ZM4.17676 60.1346H27.3905C27.2492 61.4486 27.1768 62.7831 27.1768 64.1346C27.1768 65.4861 27.2492 66.8207 27.3905 68.1346H4.17676C1.96762 68.1346 0.176758 66.3438 0.176758 64.1346C0.176758 61.9255 1.96762 60.1346 4.17676 60.1346ZM35.3378 87.3167L18.9219 103.733C17.3598 105.295 17.3598 107.827 18.9219 109.389C20.484 110.952 23.0167 110.952 24.5788 109.389L40.9946 92.9736C38.9117 91.2971 37.0142 89.3996 35.3378 87.3167Z" fill="black"/>
<path fill-rule="evenodd" clip-rule="evenodd" d="M128.177 35.6625L127.121 35.1346C121.49 32.3193 114.863 32.3193 109.232 35.1346L91.5433 43.9792C88.165 45.6684 84.1885 45.6684 80.8102 43.9792L73.1768 40.1625V49.1068L77.2325 51.1346C82.863 53.9499 89.4905 53.9499 95.121 51.1346L112.81 42.29C116.189 40.6009 120.165 40.6009 123.543 42.29L128.177 44.6068V35.6625ZM128.177 56.6625L127.121 56.1346C121.49 53.3193 114.863 53.3193 109.232 56.1346L91.5433 64.9792C88.165 66.6684 84.1885 66.6684 80.8102 64.9792L73.1768 61.1625V70.1068L77.2325 72.1346C82.863 74.9499 89.4905 74.9499 95.121 72.1346L112.81 63.29C116.189 61.6009 120.165 61.6009 123.543 63.29L128.177 65.6068V56.6625ZM128.177 77.9177L127.56 77.59C121.693 74.4731 114.661 74.4731 108.794 77.59L91.8066 86.6143C88.2863 88.4845 84.0672 88.4845 80.5469 86.6143L73.1768 82.699V91.7578L76.7937 93.6793C82.6608 96.7962 89.6927 96.7962 95.5599 93.6793L112.547 84.6549C116.067 82.7848 120.286 82.7848 123.807 84.6549L128.177 86.9765V77.9177Z" fill="black"/>
<path d="M169.941 85.5717C163.754 85.5717 159.061 83.9717 155.861 80.7717C152.661 77.5717 151.061 72.8997 151.061 66.7557V43.6517C151.061 42.4144 151.423 41.4331 152.149 40.7077C152.874 39.9397 153.855 39.5557 155.093 39.5557C156.33 39.5557 157.311 39.9397 158.037 40.7077C158.762 41.4331 159.125 42.4144 159.125 43.6517V67.2037C159.125 71.0864 160.042 74.0304 161.877 76.0357C163.711 77.9984 166.399 78.9797 169.941 78.9797C173.439 78.9797 176.106 77.9771 177.941 75.9717C179.775 73.9664 180.693 71.0437 180.693 67.2037V43.6517C180.693 42.4144 181.055 41.4331 181.781 40.7077C182.506 39.9397 183.487 39.5557 184.725 39.5557C185.962 39.5557 186.943 39.9397 187.669 40.7077C188.394 41.4331 188.757 42.4144 188.757 43.6517V66.7557C188.757 72.8571 187.157 77.5291 183.957 80.7717C180.757 83.9717 176.085 85.5717 169.941 85.5717ZM237.486 41.6677C238.169 40.2171 239.299 39.4917 240.878 39.4917C241.945 39.4917 242.905 39.8331 243.758 40.5157C244.611 41.1984 245.038 42.0517 245.038 43.0757C245.038 43.5451 244.91 44.0784 244.654 44.6757L226.926 82.8197C226.542 83.6304 225.945 84.2704 225.134 84.7397C224.366 85.1664 223.534 85.3797 222.638 85.3797C221.742 85.3797 220.889 85.1664 220.078 84.7397C219.31 84.2704 218.734 83.6304 218.35 82.8197L200.686 44.6757C200.43 44.0784 200.302 43.5664 200.302 43.1397C200.302 42.0731 200.729 41.1984 201.582 40.5157C202.478 39.8331 203.481 39.4917 204.59 39.4917C205.315 39.4917 205.977 39.6837 206.574 40.0677C207.214 40.4091 207.705 40.9424 208.046 41.6677L222.766 74.3717L237.486 41.6677ZM284.613 85.3797C283.375 85.3797 282.373 84.9957 281.605 84.2277C280.879 83.4597 280.517 82.4571 280.517 81.2197V43.6517C280.517 42.4144 280.879 41.4331 281.605 40.7077C282.373 39.9397 283.375 39.5557 284.613 39.5557C285.893 39.5557 286.895 39.9397 287.621 40.7077C288.389 41.4331 288.773 42.4144 288.773 43.6517V81.2197C288.773 82.4571 288.389 83.4597 287.621 84.2277C286.895 84.9957 285.893 85.3797 284.613 85.3797ZM322.389 52.9317C326.143 52.9317 328.938 53.9984 330.773 56.1317C332.607 58.2651 333.525 61.4864 333.525 65.7957V81.5397C333.525 82.7344 333.162 83.6731 332.437 84.3557C331.754 85.0384 330.794 85.3797 329.557 85.3797C328.319 85.3797 327.338 85.0384 326.613 84.3557C325.887 83.6731 325.525 82.7344 325.525 81.5397V66.2437C325.525 63.8117 325.055 62.0411 324.117 60.9317C323.221 59.8224 321.791 59.2677 319.829 59.2677C317.525 59.2677 315.669 59.9931 314.261 61.4437C312.895 62.8944 312.213 64.8357 312.213 67.2677V81.5397C312.213 82.7344 311.85 83.6731 311.125 84.3557C310.399 85.0384 309.418 85.3797 308.181 85.3797C306.943 85.3797 305.962 85.0384 305.237 84.3557C304.554 83.6731 304.213 82.7344 304.213 81.5397V56.7717C304.213 55.6624 304.575 54.7664 305.301 54.0837C306.026 53.4011 307.007 53.0597 308.245 53.0597C309.354 53.0597 310.25 53.4011 310.933 54.0837C311.658 54.7237 312.021 55.5771 312.021 56.6437V58.3717C313.087 56.6224 314.517 55.2784 316.309 54.3397C318.101 53.4011 320.127 52.9317 322.389 52.9317ZM374.162 39.5557C375.357 39.5557 376.338 39.8971 377.106 40.5797C377.874 41.2624 378.258 42.1584 378.258 43.2677V81.5397C378.258 82.6917 377.895 83.6091 377.17 84.2917C376.445 84.9744 375.485 85.3157 374.29 85.3157C373.095 85.3157 372.135 84.9744 371.41 84.2917C370.685 83.6091 370.322 82.6917 370.322 81.5397V79.9397C369.383 81.6891 368.018 83.0544 366.226 84.0357C364.477 85.0171 362.471 85.5077 360.21 85.5077C357.522 85.5077 355.111 84.8251 352.978 83.4597C350.887 82.0944 349.245 80.1744 348.05 77.6997C346.898 75.1824 346.322 72.3024 346.322 69.0597C346.322 65.8171 346.898 62.9797 348.05 60.5477C349.245 58.1157 350.887 56.2384 352.978 54.9157C355.069 53.5931 357.479 52.9317 360.21 52.9317C362.471 52.9317 364.477 53.4011 366.226 54.3397C367.975 55.2784 369.319 56.6011 370.258 58.3077V43.1397C370.258 42.0731 370.599 41.2197 371.282 40.5797C372.007 39.8971 372.967 39.5557 374.162 39.5557ZM362.322 79.2997C364.882 79.2997 366.845 78.4251 368.21 76.6757C369.618 74.9264 370.322 72.4304 370.322 69.1877C370.322 65.9451 369.618 63.4704 368.21 61.7637C366.845 60.0144 364.903 59.1397 362.386 59.1397C359.826 59.1397 357.842 59.9931 356.434 61.6997C355.026 63.4064 354.322 65.8597 354.322 69.0597C354.322 72.3024 355.026 74.8197 356.434 76.6117C357.842 78.4037 359.805 79.2997 362.322 79.2997ZM417.656 76.4197C418.381 76.4197 418.957 76.6971 419.384 77.2517C419.853 77.8064 420.088 78.5531 420.088 79.4917C420.088 80.8144 419.298 81.9237 417.72 82.8197C416.269 83.6304 414.626 84.2917 412.792 84.8037C410.957 85.2731 409.208 85.5077 407.544 85.5077C402.509 85.5077 398.52 84.0571 395.576 81.1557C392.632 78.2544 391.16 74.2864 391.16 69.2517C391.16 66.0517 391.8 63.2144 393.08 60.7397C394.36 58.2651 396.152 56.3451 398.456 54.9797C400.802 53.6144 403.448 52.9317 406.392 52.9317C409.208 52.9317 411.661 53.5504 413.752 54.7877C415.842 56.0251 417.464 57.7744 418.616 60.0357C419.768 62.2971 420.344 64.9637 420.344 68.0357C420.344 69.8704 419.533 70.7877 417.912 70.7877H399.032C399.288 73.7317 400.12 75.9077 401.528 77.3157C402.936 78.6811 404.984 79.3637 407.672 79.3637C409.037 79.3637 410.232 79.1931 411.256 78.8517C412.322 78.5104 413.517 78.0411 414.84 77.4437C416.12 76.7611 417.058 76.4197 417.656 76.4197ZM406.584 58.5637C404.408 58.5637 402.658 59.2464 401.336 60.6117C400.056 61.9771 399.288 63.9397 399.032 66.4997H413.496C413.41 63.8971 412.77 61.9344 411.576 60.6117C410.381 59.2464 408.717 58.5637 406.584 58.5637ZM460.236 79.1077C461.004 79.8757 461.388 80.7504 461.388 81.7317C461.388 82.6704 461.025 83.5237 460.3 84.2917C459.575 85.0171 458.721 85.3797 457.74 85.3797C456.673 85.3797 455.756 84.9317 454.988 84.0357L445.964 74.0517L436.94 84.0357C436.129 84.8891 435.212 85.3157 434.188 85.3157C433.249 85.3157 432.417 84.9531 431.692 84.2277C430.967 83.5024 430.604 82.6704 430.604 81.7317C430.604 80.7504 430.988 79.8757 431.756 79.1077L441.1 68.9317L432.268 59.3317C431.5 58.5637 431.116 57.6891 431.116 56.7077C431.116 55.7264 431.479 54.8944 432.204 54.2117C432.929 53.4864 433.761 53.1237 434.7 53.1237C435.724 53.1237 436.641 53.5504 437.452 54.4037L445.964 63.7477L454.476 54.4037C455.287 53.5504 456.204 53.1237 457.228 53.1237C458.209 53.1237 459.041 53.4864 459.724 54.2117C460.449 54.8944 460.812 55.7264 460.812 56.7077C460.812 57.6891 460.428 58.5637 459.66 59.3317L450.828 68.9317L460.236 79.1077Z" fill="black"/>
</svg>
