<svg width="133" height="133" viewBox="0 0 133 133" fill="none" xmlns="http://www.w3.org/2000/svg">
<mask id="path-1-outside-1" maskUnits="userSpaceOnUse" x="0.126816" y="0.134613" width="72" height="132" fill="black">
<rect fill="white" x="0.126816" y="0.134613" width="72" height="132"/>
<path fill-rule="evenodd" clip-rule="evenodd" d="M66.1268 2.13461C68.336 2.13461 70.1268 3.92547 70.1268 6.13461V29.3483C68.8129 29.2071 67.4783 29.1346 66.1268 29.1346C64.7753 29.1346 63.4408 29.2071 62.1268 29.3483V6.13461C62.1268 3.92547 63.9177 2.13461 66.1268 2.13461ZM70.1268 34.3822C68.8164 34.2188 67.4815 34.1346 66.1268 34.1346C48.4537 34.1346 34.1268 48.4615 34.1268 66.1346C34.1268 83.8077 48.4537 98.1346 66.1268 98.1346C67.4815 98.1346 68.8164 98.0504 70.1268 97.887V34.3822ZM70.1268 102.921C68.8129 103.062 67.4783 103.135 66.1268 103.135C64.7753 103.135 63.4408 103.062 62.1268 102.921V126.135C62.1268 128.344 63.9177 130.135 66.1268 130.135C68.336 130.135 70.1268 128.344 70.1268 126.135V102.921ZM42.9447 37.2957L26.5288 20.8798C24.9667 19.3177 22.4341 19.3177 20.872 20.8798C19.3099 22.4419 19.3099 24.9746 20.872 26.5367L37.2878 42.9525C38.9643 40.8696 40.8618 38.9721 42.9447 37.2957ZM6.12682 62.1346H29.3405C29.1993 63.4486 29.1268 64.7831 29.1268 66.1346C29.1268 67.4861 29.1993 68.8207 29.3405 70.1346H6.12682C3.91768 70.1346 2.12682 68.3438 2.12682 66.1346C2.12682 63.9255 3.91768 62.1346 6.12682 62.1346ZM37.2878 89.3167L20.872 105.733C19.3099 107.295 19.3099 109.827 20.872 111.389C22.4341 112.952 24.9667 112.952 26.5288 111.389L42.9447 94.9736C40.8618 93.2971 38.9643 91.3996 37.2878 89.3167Z"/>
</mask>
<path fill-rule="evenodd" clip-rule="evenodd" d="M66.1268 2.13461C68.336 2.13461 70.1268 3.92547 70.1268 6.13461V29.3483C68.8129 29.2071 67.4783 29.1346 66.1268 29.1346C64.7753 29.1346 63.4408 29.2071 62.1268 29.3483V6.13461C62.1268 3.92547 63.9177 2.13461 66.1268 2.13461ZM70.1268 34.3822C68.8164 34.2188 67.4815 34.1346 66.1268 34.1346C48.4537 34.1346 34.1268 48.4615 34.1268 66.1346C34.1268 83.8077 48.4537 98.1346 66.1268 98.1346C67.4815 98.1346 68.8164 98.0504 70.1268 97.887V34.3822ZM70.1268 102.921C68.8129 103.062 67.4783 103.135 66.1268 103.135C64.7753 103.135 63.4408 103.062 62.1268 102.921V126.135C62.1268 128.344 63.9177 130.135 66.1268 130.135C68.336 130.135 70.1268 128.344 70.1268 126.135V102.921ZM42.9447 37.2957L26.5288 20.8798C24.9667 19.3177 22.4341 19.3177 20.872 20.8798C19.3099 22.4419 19.3099 24.9746 20.872 26.5367L37.2878 42.9525C38.9643 40.8696 40.8618 38.9721 42.9447 37.2957ZM6.12682 62.1346H29.3405C29.1993 63.4486 29.1268 64.7831 29.1268 66.1346C29.1268 67.4861 29.1993 68.8207 29.3405 70.1346H6.12682C3.91768 70.1346 2.12682 68.3438 2.12682 66.1346C2.12682 63.9255 3.91768 62.1346 6.12682 62.1346ZM37.2878 89.3167L20.872 105.733C19.3099 107.295 19.3099 109.827 20.872 111.389C22.4341 112.952 24.9667 112.952 26.5288 111.389L42.9447 94.9736C40.8618 93.2971 38.9643 91.3996 37.2878 89.3167Z" fill="black"/>
<path d="M70.1268 29.3483L69.9131 31.3369L72.1268 31.5748V29.3483H70.1268ZM62.1268 29.3483H60.1268V31.5748L62.3406 31.3369L62.1268 29.3483ZM70.1268 34.3822H72.1268V32.6161L70.3743 32.3976L70.1268 34.3822ZM70.1268 97.887L70.3743 99.8717L72.1268 99.6531V97.887H70.1268ZM70.1268 102.921H72.1268V100.694L69.9131 100.932L70.1268 102.921ZM62.1268 102.921L62.3406 100.932L60.1268 100.694V102.921H62.1268ZM42.9447 37.2957L44.1987 38.8537L45.9342 37.4568L44.3589 35.8815L42.9447 37.2957ZM37.2878 42.9525L35.8736 44.3667L37.449 45.9421L38.8459 44.2065L37.2878 42.9525ZM29.3405 62.1346L31.3291 62.3484L31.567 60.1346H29.3405V62.1346ZM29.3405 70.1346V72.1346H31.567L31.3291 69.9209L29.3405 70.1346ZM20.872 105.733L19.4578 104.318L19.4578 104.318L20.872 105.733ZM37.2878 89.3167L38.8459 88.0627L37.449 86.3271L35.8736 87.9025L37.2878 89.3167ZM20.872 111.389L19.4578 112.804L19.4578 112.804L20.872 111.389ZM26.5288 111.389L25.1146 109.975L25.1146 109.975L26.5288 111.389ZM42.9447 94.9736L44.3589 96.3878L45.9343 94.8124L44.1987 93.4155L42.9447 94.9736ZM72.1268 6.13461C72.1268 2.8209 69.4405 0.134613 66.1268 0.134613V4.13461C67.2314 4.13461 68.1268 5.03004 68.1268 6.13461H72.1268ZM72.1268 29.3483V6.13461H68.1268V29.3483H72.1268ZM66.1268 31.1346C67.4068 31.1346 68.67 31.2032 69.9131 31.3369L70.3406 27.3598C68.9558 27.2109 67.5498 27.1346 66.1268 27.1346V31.1346ZM62.3406 31.3369C63.5837 31.2032 64.8469 31.1346 66.1268 31.1346V27.1346C64.7038 27.1346 63.2979 27.2109 61.9131 27.3598L62.3406 31.3369ZM60.1268 6.13461V29.3483H64.1268V6.13461H60.1268ZM66.1268 0.134613C62.8131 0.134613 60.1268 2.82091 60.1268 6.13461H64.1268C64.1268 5.03004 65.0222 4.13461 66.1268 4.13461V0.134613ZM66.1268 36.1346C67.3985 36.1346 68.6509 36.2136 69.8793 36.3668L70.3743 32.3976C68.982 32.2239 67.5644 32.1346 66.1268 32.1346V36.1346ZM36.1268 66.1346C36.1268 49.5661 49.5583 36.1346 66.1268 36.1346V32.1346C47.3491 32.1346 32.1268 47.3569 32.1268 66.1346H36.1268ZM66.1268 96.1346C49.5583 96.1346 36.1268 82.7032 36.1268 66.1346H32.1268C32.1268 84.9123 47.3491 100.135 66.1268 100.135V96.1346ZM69.8793 95.9024C68.6509 96.0556 67.3985 96.1346 66.1268 96.1346V100.135C67.5644 100.135 68.982 100.045 70.3743 99.8717L69.8793 95.9024ZM72.1268 97.887V34.3822H68.1268V97.887H72.1268ZM69.9131 100.932C68.67 101.066 67.4068 101.135 66.1268 101.135V105.135C67.5498 105.135 68.9558 105.058 70.3406 104.909L69.9131 100.932ZM66.1268 101.135C64.8469 101.135 63.5837 101.066 62.3406 100.932L61.9131 104.909C63.2979 105.058 64.7038 105.135 66.1268 105.135V101.135ZM60.1268 102.921V126.135H64.1268V102.921H60.1268ZM60.1268 126.135C60.1268 129.448 62.8131 132.135 66.1268 132.135V128.135C65.0222 128.135 64.1268 127.239 64.1268 126.135H60.1268ZM66.1268 132.135C69.4405 132.135 72.1268 129.448 72.1268 126.135H68.1268C68.1268 127.239 67.2314 128.135 66.1268 128.135V132.135ZM72.1268 126.135V102.921H68.1268V126.135H72.1268ZM25.1146 22.294L41.5305 38.7099L44.3589 35.8815L27.943 19.4656L25.1146 22.294ZM22.2862 22.294C23.0672 21.513 24.3336 21.513 25.1146 22.294L27.943 19.4656C25.5999 17.1225 21.8009 17.1225 19.4578 19.4656L22.2862 22.294ZM22.2862 25.1225C21.5051 24.3414 21.5051 23.0751 22.2862 22.294L19.4578 19.4656C17.1146 21.8088 17.1146 25.6077 19.4578 27.9509L22.2862 25.1225ZM38.702 41.5383L22.2862 25.1225L19.4578 27.9509L35.8736 44.3667L38.702 41.5383ZM41.6907 35.7376C39.4958 37.5042 37.4964 39.5037 35.7298 41.6985L38.8459 44.2065C40.4322 42.2356 42.2278 40.44 44.1987 38.8537L41.6907 35.7376ZM29.3405 60.1346H6.12682V64.1346H29.3405V60.1346ZM31.1268 66.1346C31.1268 64.8547 31.1954 63.5915 31.3291 62.3484L27.352 61.9209C27.2031 63.3057 27.1268 64.7116 27.1268 66.1346H31.1268ZM31.3291 69.9209C31.1954 68.6778 31.1268 67.4146 31.1268 66.1346H27.1268C27.1268 67.5576 27.2031 68.9635 27.352 70.3484L31.3291 69.9209ZM6.12682 72.1346H29.3405V68.1346H6.12682V72.1346ZM0.126816 66.1346C0.126816 69.4483 2.81311 72.1346 6.12682 72.1346V68.1346C5.02225 68.1346 4.12682 67.2392 4.12682 66.1346H0.126816ZM6.12682 60.1346C2.81311 60.1346 0.126816 62.8209 0.126816 66.1346H4.12682C4.12682 65.0301 5.02225 64.1346 6.12682 64.1346V60.1346ZM22.2862 107.147L38.7021 90.7309L35.8736 87.9025L19.4578 104.318L22.2862 107.147ZM22.2862 109.975C21.5051 109.194 21.5051 107.928 22.2862 107.147L19.4578 104.318C17.1146 106.662 17.1146 110.461 19.4578 112.804L22.2862 109.975ZM25.1146 109.975C24.3336 110.756 23.0672 110.756 22.2862 109.975L19.4578 112.804C21.8009 115.147 25.5999 115.147 27.943 112.804L25.1146 109.975ZM41.5305 93.5594L25.1146 109.975L27.943 112.804L44.3589 96.3878L41.5305 93.5594ZM35.7298 90.5707C37.4964 92.7656 39.4958 94.765 41.6907 96.5316L44.1987 93.4155C42.2278 91.8292 40.4322 90.0336 38.8459 88.0627L35.7298 90.5707Z" fill="white" mask="url(#path-1-outside-1)"/>
<mask id="path-3-outside-2" maskUnits="userSpaceOnUse" x="73.1268" y="33.0232" width="59" height="67" fill="black">
<rect fill="white" x="73.1268" y="33.0232" width="59" height="67"/>
<path fill-rule="evenodd" clip-rule="evenodd" d="M130.127 37.6625L129.071 37.1346C123.441 34.3193 116.813 34.3193 111.183 37.1346L93.4934 45.9792C90.1151 47.6684 86.1386 47.6684 82.7603 45.9792L75.1268 42.1625V51.1068L79.1826 53.1346C84.8131 55.9499 91.4406 55.9499 97.0711 53.1346L114.76 44.29C118.139 42.6009 122.115 42.6009 125.493 44.29L130.127 46.6068V37.6625ZM130.127 58.6625L129.071 58.1346C123.441 55.3193 116.813 55.3193 111.183 58.1346L93.4934 66.9792C90.1151 68.6684 86.1386 68.6684 82.7603 66.9792L75.1268 63.1625V72.1068L79.1826 74.1346C84.8131 76.9499 91.4406 76.9499 97.0711 74.1346L114.76 65.29C118.139 63.6009 122.115 63.6009 125.493 65.29L130.127 67.6068V58.6625ZM130.127 79.9177L129.51 79.59C123.643 76.4731 116.611 76.4731 110.744 79.59L93.7567 88.6143C90.2364 90.4845 86.0173 90.4845 82.497 88.6143L75.1268 84.699V93.7578L78.7437 95.6793C84.6109 98.7962 91.6428 98.7962 97.5099 95.6793L114.497 86.6549C118.017 84.7848 122.236 84.7848 125.757 86.6549L130.127 88.9765V79.9177Z"/>
</mask>
<path fill-rule="evenodd" clip-rule="evenodd" d="M130.127 37.6625L129.071 37.1346C123.441 34.3193 116.813 34.3193 111.183 37.1346L93.4934 45.9792C90.1151 47.6684 86.1386 47.6684 82.7603 45.9792L75.1268 42.1625V51.1068L79.1826 53.1346C84.8131 55.9499 91.4406 55.9499 97.0711 53.1346L114.76 44.29C118.139 42.6009 122.115 42.6009 125.493 44.29L130.127 46.6068V37.6625ZM130.127 58.6625L129.071 58.1346C123.441 55.3193 116.813 55.3193 111.183 58.1346L93.4934 66.9792C90.1151 68.6684 86.1386 68.6684 82.7603 66.9792L75.1268 63.1625V72.1068L79.1826 74.1346C84.8131 76.9499 91.4406 76.9499 97.0711 74.1346L114.76 65.29C118.139 63.6009 122.115 63.6009 125.493 65.29L130.127 67.6068V58.6625ZM130.127 79.9177L129.51 79.59C123.643 76.4731 116.611 76.4731 110.744 79.59L93.7567 88.6143C90.2364 90.4845 86.0173 90.4845 82.497 88.6143L75.1268 84.699V93.7578L78.7437 95.6793C84.6109 98.7962 91.6428 98.7962 97.5099 95.6793L114.497 86.6549C118.017 84.7848 122.236 84.7848 125.757 86.6549L130.127 88.9765V79.9177Z" fill="black"/>
<path d="M128.19 41.133L129.966 37.5818L128.177 36.6874L126.401 40.2386L128.19 41.133ZM130.127 37.6625H132.127V36.4264L131.021 35.8736L130.127 37.6625ZM129.071 37.1346L129.966 35.3458L129.966 35.3458L129.071 37.1346ZM111.183 37.1346L110.288 35.3458L110.288 35.3458L111.183 37.1346ZM93.4934 45.9792L92.599 44.1903L92.599 44.1903L93.4934 45.9792ZM82.7603 45.9792L81.8658 47.7681L81.8658 47.7681L82.7603 45.9792ZM75.1268 42.1625L76.0213 40.3736L73.1268 38.9264V42.1625H75.1268ZM75.1268 51.1068H73.1268V52.3428L74.2324 52.8956L75.1268 51.1068ZM79.1826 53.1346L80.077 51.3458L80.077 51.3458L79.1826 53.1346ZM97.0711 53.1346L97.9655 54.9235L97.9655 54.9235L97.0711 53.1346ZM114.76 44.29L113.866 42.5012L113.866 42.5012L114.76 44.29ZM125.493 44.29L126.388 42.5012L126.388 42.5012L125.493 44.29ZM130.127 46.6068L129.232 48.3956L132.127 49.8428V46.6068H130.127ZM129.071 58.1346L129.966 56.3458L129.966 56.3458L129.071 58.1346ZM130.127 58.6625H132.127V57.4264L131.021 56.8736L130.127 58.6625ZM111.183 58.1346L110.288 56.3458L110.288 56.3458L111.183 58.1346ZM93.4934 66.9792L94.3878 68.7681L94.3878 68.7681L93.4934 66.9792ZM82.7603 66.9792L81.8658 68.7681L81.8658 68.7681L82.7603 66.9792ZM75.1268 63.1625L76.0213 61.3736L73.1268 59.9264V63.1625H75.1268ZM75.1268 72.1068H73.1268V73.3428L74.2324 73.8956L75.1268 72.1068ZM79.1826 74.1346L78.2881 75.9235L78.2881 75.9235L79.1826 74.1346ZM97.0711 74.1346L97.9655 75.9235L97.9655 75.9235L97.0711 74.1346ZM130.127 67.6068L129.232 69.3956L132.127 70.8428V67.6068H130.127ZM129.51 79.59L128.572 81.3562L128.572 81.3562L129.51 79.59ZM130.127 79.9177H132.127V78.7155L131.065 78.1515L130.127 79.9177ZM110.744 79.59L111.682 81.3562L111.682 81.3562L110.744 79.59ZM93.7567 88.6143L92.8184 86.8481L92.8184 86.8481L93.7567 88.6143ZM82.497 88.6143L81.5587 90.3806L81.5587 90.3806L82.497 88.6143ZM75.1268 84.699L76.0651 82.9327L73.1268 81.3717V84.699H75.1268ZM75.1268 93.7578H73.1268V94.96L74.1885 95.524L75.1268 93.7578ZM78.7437 95.6793L77.8054 97.4455L77.8054 97.4455L78.7437 95.6793ZM97.5099 95.6793L98.4482 97.4455L98.4482 97.4455L97.5099 95.6793ZM114.497 86.6549L113.559 84.8887L113.559 84.8887L114.497 86.6549ZM125.757 86.6549L124.818 88.4211L124.818 88.4211L125.757 86.6549ZM130.127 88.9765L129.189 90.7428L132.127 92.3037V88.9765H130.127ZM131.021 35.8736L129.966 35.3458L128.177 38.9235L129.232 39.4513L131.021 35.8736ZM129.966 35.3458C123.772 32.249 116.482 32.249 110.288 35.3458L112.077 38.9235C117.144 36.3897 123.109 36.3897 128.177 38.9235L129.966 35.3458ZM110.288 35.3458L92.599 44.1903L94.3878 47.7681L112.077 38.9235L110.288 35.3458ZM92.599 44.1903C89.7837 45.598 86.47 45.598 83.6547 44.1903L81.8658 47.7681C85.8072 49.7387 90.4464 49.7388 94.3878 47.7681L92.599 44.1903ZM83.6547 44.1903L76.0213 40.3736L74.2324 43.9513L81.8658 47.7681L83.6547 44.1903ZM73.1268 42.1625V51.1068H77.1268V42.1625H73.1268ZM74.2324 52.8956L78.2881 54.9235L80.077 51.3458L76.0213 49.3179L74.2324 52.8956ZM78.2881 54.9235C84.4817 58.0203 91.7719 58.0203 97.9655 54.9235L96.1767 51.3458C91.1092 53.8795 85.1445 53.8795 80.077 51.3458L78.2881 54.9235ZM97.9655 54.9235L115.655 46.0789L113.866 42.5012L96.1767 51.3458L97.9655 54.9235ZM115.655 46.0789C118.47 44.6713 121.784 44.6713 124.599 46.0789L126.388 42.5012C122.446 40.5305 117.807 40.5305 113.866 42.5012L115.655 46.0789ZM124.599 46.0789L129.232 48.3956L131.021 44.8179L126.388 42.5012L124.599 46.0789ZM132.127 46.6068V37.6625H128.127V46.6068H132.127ZM128.177 59.9235L129.232 60.4513L131.021 56.8736L129.966 56.3458L128.177 59.9235ZM112.077 59.9235C117.144 57.3897 123.109 57.3897 128.177 59.9235L129.966 56.3458C123.772 53.249 116.482 53.249 110.288 56.3458L112.077 59.9235ZM94.3878 68.7681L112.077 59.9235L110.288 56.3458L92.599 65.1903L94.3878 68.7681ZM81.8658 68.7681C85.8072 70.7387 90.4464 70.7387 94.3878 68.7681L92.599 65.1903C89.7837 66.598 86.47 66.598 83.6547 65.1903L81.8658 68.7681ZM74.2324 64.9513L81.8658 68.7681L83.6547 65.1903L76.0213 61.3736L74.2324 64.9513ZM77.1268 72.1068V63.1625H73.1268V72.1068H77.1268ZM80.077 72.3458L76.0213 70.3179L74.2324 73.8956L78.2881 75.9235L80.077 72.3458ZM96.1767 72.3458C91.1092 74.8795 85.1445 74.8795 80.077 72.3458L78.2881 75.9235C84.4817 79.0203 91.7719 79.0203 97.9655 75.9235L96.1767 72.3458ZM113.866 63.5012L96.1767 72.3458L97.9655 75.9235L115.655 67.0789L113.866 63.5012ZM126.388 63.5012C122.446 61.5305 117.807 61.5305 113.866 63.5012L115.655 67.0789C118.47 65.6713 121.784 65.6713 124.599 67.0789L126.388 63.5012ZM131.021 65.8179L126.388 63.5012L124.599 67.0789L129.232 69.3956L131.021 65.8179ZM132.127 67.6068V58.6625H128.127V67.6068H132.127ZM128.572 81.3562L129.189 81.6839L131.065 78.1515L130.448 77.8237L128.572 81.3562ZM111.682 81.3562C116.962 78.551 123.291 78.551 128.572 81.3562L130.448 77.8237C123.994 74.3951 116.259 74.3951 109.805 77.8237L111.682 81.3562ZM94.695 90.3806L111.682 81.3562L109.805 77.8237L92.8184 86.8481L94.695 90.3806ZM81.5587 90.3806C85.6657 92.5624 90.588 92.5624 94.695 90.3806L92.8184 86.8481C89.8848 88.4066 86.3688 88.4066 83.4353 86.8481L81.5587 90.3806ZM74.1885 86.4652L81.5587 90.3806L83.4353 86.8481L76.0651 82.9327L74.1885 86.4652ZM77.1268 93.7578V84.699H73.1268V93.7578H77.1268ZM79.682 93.913L76.0651 91.9916L74.1885 95.524L77.8054 97.4455L79.682 93.913ZM96.5716 93.913C91.2912 96.7183 84.9625 96.7183 79.682 93.913L77.8054 97.4455C84.2593 100.874 91.9944 100.874 98.4482 97.4455L96.5716 93.913ZM113.559 84.8887L96.5716 93.913L98.4482 97.4455L115.435 88.4211L113.559 84.8887ZM126.695 84.8887C122.588 82.7068 117.666 82.7068 113.559 84.8887L115.435 88.4211C118.369 86.8627 121.885 86.8627 124.818 88.4211L126.695 84.8887ZM131.065 87.2103L126.695 84.8887L124.818 88.4211L129.189 90.7428L131.065 87.2103ZM132.127 88.9765V79.9177H128.127V88.9765H132.127Z" fill="white" mask="url(#path-3-outside-2)"/>
</svg>
