<svg width="128" height="128" viewBox="0 0 128 128" fill="none" xmlns="http://www.w3.org/2000/svg">
<path d="M64 0C66.2091 0 68 1.79086 68 4V27.2137C66.686 27.0725 65.3515 27 64 27C62.6485 27 61.314 27.0725 60 27.2137V4C60 1.79086 61.7909 0 64 0Z" fill="black"/>
<path d="M68 32.2476C66.6896 32.0842 65.3546 32 64 32C46.3269 32 32 46.3269 32 64C32 81.6731 46.3269 96 64 96C65.3546 96 66.6896 95.9158 68 95.7524V32.2476Z" fill="black"/>
<path d="M68 100.786C66.686 100.928 65.3515 101 64 101C62.6485 101 61.314 100.928 60 100.786V124C60 126.209 61.7909 128 64 128C66.2091 128 68 126.209 68 124V100.786Z" fill="black"/>
<path d="M40.8179 35.1611L24.402 18.7452C22.8399 17.1831 20.3072 17.1831 18.7452 18.7452C17.1831 20.3073 17.1831 22.84 18.7452 24.4021L35.161 40.8179C36.8375 38.735 38.735 36.8375 40.8179 35.1611Z" fill="black"/>
<path d="M4 60H27.2137C27.0725 61.314 27 62.6485 27 64C27 65.3515 27.0725 66.686 27.2137 68H4C1.79086 68 0 66.2091 0 64C0 61.7909 1.79086 60 4 60Z" fill="black"/>
<path d="M35.161 87.1821L18.7452 103.598C17.1831 105.16 17.1831 107.693 18.7452 109.255C20.3072 110.817 22.8399 110.817 24.402 109.255L40.8179 92.839C38.735 91.1625 36.8375 89.265 35.161 87.1821Z" fill="black"/>
<path d="M128 35.5279L126.944 35C121.314 32.1847 114.686 32.1847 109.056 35L91.3666 43.8446C87.9882 45.5338 84.0118 45.5338 80.6334 43.8446L73 40.0279V48.9721L77.0557 51C82.6863 53.8153 89.3137 53.8153 94.9443 51L112.633 42.1554C116.012 40.4663 119.988 40.4663 123.367 42.1554L128 44.4721V35.5279Z" fill="black"/>
<path d="M128 56.5279L126.944 56C121.314 53.1847 114.686 53.1847 109.056 56L91.3666 64.8446C87.9882 66.5338 84.0118 66.5338 80.6334 64.8446L73 61.0279V69.9721L77.0557 72C82.6863 74.8153 89.3137 74.8153 94.9443 72L112.633 63.1554C116.012 61.4663 119.988 61.4663 123.367 63.1554L128 65.4721V56.5279Z" fill="black"/>
<path d="M128 77.7831L127.383 77.4554C121.516 74.3385 114.484 74.3384 108.617 77.4554L91.6299 86.4797C88.1096 88.3499 83.8904 88.3499 80.3701 86.4797L73 82.5643V91.6232L76.6169 93.5447C82.484 96.6616 89.516 96.6616 95.3831 93.5447L112.37 84.5203C115.89 82.6501 120.11 82.6501 123.63 84.5203L128 86.8419V77.7831Z" fill="black"/>
</svg>
